<svg width="187" height="66" viewBox="0 0 187 66" fill="none" xmlns="http://www.w3.org/2000/svg">
<g clip-path="url(#clip0)">
<path d="M46.88 29.687C46.8572 30.1236 46.7577 30.5529 46.586 30.955L46.486 31.172L46.227 31.733L45.993 32.239L41.919 41.039L41.894 41.091V41.101C41.8414 41.2282 41.811 41.3635 41.804 41.501C41.804 41.523 41.804 41.544 41.804 41.565V46.545C41.804 46.596 41.804 46.645 41.804 46.699C41.7962 46.8476 41.7768 46.9954 41.746 47.141C41.6103 47.7633 41.274 48.3239 40.7888 48.7365C40.3036 49.1492 39.6964 49.3912 39.0603 49.4252C38.4243 49.4593 37.7947 49.2836 37.2682 48.9251C36.7417 48.5667 36.3474 48.0452 36.146 47.441C36.0635 47.1918 36.016 46.9323 36.005 46.67V41.337C36.005 41.1657 36.0093 40.9937 36.018 40.821C36.0794 39.6644 36.3505 38.5286 36.818 37.469L36.951 37.184L39.017 32.723C39.0757 32.6012 39.1097 32.469 39.117 32.334C39.13 32.0745 39.046 31.8195 38.8813 31.6185C38.7166 31.4176 38.483 31.2852 38.226 31.247L38.174 31.24L37.851 31.199L17.858 28.647L13.758 28.124L13.711 28.118C12.8076 27.9994 11.9706 27.5795 11.3354 26.9262C10.7003 26.2729 10.3041 25.4244 10.211 24.518C10.1563 23.9407 10.129 23.3567 10.129 22.766C10.1288 18.2577 11.7645 13.9026 14.7324 10.509C17.7003 7.11553 21.7988 4.91424 26.2669 4.31391C30.7351 3.71358 35.2692 4.75501 39.0276 7.24479C42.786 9.73457 45.5132 13.5036 46.703 17.852C46.7477 18.0167 46.7903 18.1833 46.831 18.352C46.9595 19.1169 46.7886 19.9019 46.3538 20.5442C45.9191 21.1865 45.2538 21.6369 44.4959 21.8019C43.7381 21.9669 42.9458 21.8339 42.2833 21.4304C41.6209 21.027 41.1392 20.3841 40.938 19.635C40.93 19.6 40.921 19.565 40.912 19.535C40.203 16.7377 38.548 14.2719 36.2278 12.556C33.9077 10.8401 31.0653 9.97985 28.183 10.1212C25.3008 10.2625 22.5562 11.3967 20.415 13.3313C18.2738 15.2659 16.868 17.8818 16.436 20.735C16.43 20.771 16.425 20.807 16.42 20.843C16.415 20.879 16.413 20.891 16.41 20.916C16.407 20.941 16.41 20.962 16.405 20.986C16.389 21.3088 16.4847 21.6273 16.6759 21.8879C16.8671 22.1486 17.1422 22.3354 17.455 22.417L17.826 22.464L17.959 22.481L40.957 25.417L43.557 25.748H43.59C44.2452 25.8345 44.8666 26.0904 45.3927 26.4904C45.9188 26.8904 46.3315 27.4207 46.59 28.029C46.8121 28.5522 46.9113 29.1194 46.88 29.687Z" fill="white"/>
<path d="M29.913 0.644995C29.9118 0.669713 29.9055 0.693935 29.8947 0.716193C29.8839 0.73845 29.8687 0.758297 29.85 0.774542C29.8313 0.790787 29.8096 0.803096 29.786 0.810736C29.7625 0.818376 29.7376 0.82119 29.713 0.819006C29.3583 0.80434 29.002 0.797003 28.644 0.797003C22.8459 0.797754 17.228 2.81205 12.7504 6.49566C8.27282 10.1793 5.21343 15.3035 4.09509 20.9928C2.97675 26.682 3.86888 32.583 6.61902 37.6874C9.36916 42.7918 13.8066 46.7826 19.173 48.978C19.2075 48.9926 19.2366 49.0176 19.2563 49.0495C19.276 49.0814 19.2853 49.1186 19.283 49.156C19.2817 49.1807 19.2755 49.2049 19.2647 49.2272C19.2539 49.2494 19.2387 49.2693 19.22 49.2855C19.2013 49.3018 19.1796 49.3141 19.156 49.3217C19.1325 49.3294 19.1077 49.3322 19.083 49.33H19.065L19.044 49.317H19.038C12.6739 47.7826 7.16464 43.8151 3.69189 38.2657C0.219135 32.7163 -0.940496 26.0269 0.461737 19.6324C1.86397 13.2379 5.71638 7.64759 11.1926 4.06058C16.6689 0.473576 23.3328 -0.824422 29.755 0.444998C29.8005 0.454756 29.8411 0.480073 29.87 0.516577C29.8988 0.553081 29.914 0.598486 29.913 0.644995Z" fill="white"/>
<path d="M24.748 55.974C24.3175 55.9738 23.9008 55.822 23.5711 55.5452C23.2414 55.2684 23.0197 54.8844 22.9449 54.4604C22.87 54.0365 22.9469 53.5997 23.162 53.2268C23.3771 52.8539 23.7166 52.5686 24.121 52.421L32.614 49.33C32.84 49.2478 33.08 49.2108 33.3203 49.2213C33.5605 49.2318 33.7964 49.2894 34.0144 49.3911C34.2324 49.4927 34.4282 49.6363 34.5907 49.8136C34.7532 49.9909 34.8792 50.1985 34.9615 50.4245C35.0438 50.6505 35.0807 50.8905 35.0702 51.1308C35.0597 51.3711 35.0021 51.607 34.9004 51.825C34.7988 52.043 34.6552 52.2388 34.4779 52.4013C34.3006 52.5638 34.093 52.6898 33.867 52.7721L25.374 55.863C25.1734 55.9363 24.9615 55.9739 24.748 55.974Z" fill="white"/>
<path d="M29.15 65.853C28.7195 65.8528 28.3028 65.701 27.9731 65.4242C27.6434 65.1474 27.4217 64.7634 27.3469 64.3394C27.272 63.9155 27.3489 63.4787 27.564 63.1058C27.7791 62.7329 28.1186 62.4476 28.523 62.3L37.016 59.209C37.242 59.1268 37.482 59.0898 37.7223 59.1003C37.9626 59.1108 38.1984 59.1684 38.4164 59.2701C38.6344 59.3717 38.8302 59.5153 38.9927 59.6926C39.1552 59.8699 39.2812 60.0775 39.3635 60.3035C39.4458 60.5295 39.4827 60.7695 39.4722 61.0098C39.4617 61.2501 39.4041 61.4859 39.3024 61.7039C39.2008 61.9219 39.0572 62.1178 38.8799 62.2803C38.7026 62.4428 38.495 62.5687 38.269 62.651L29.776 65.742C29.5754 65.8153 29.3635 65.8529 29.15 65.853Z" fill="white"/>
<path d="M25.693 61.36C25.2625 61.3598 24.8458 61.2079 24.5161 60.9311C24.1864 60.6543 23.9647 60.2703 23.8899 59.8463C23.815 59.4224 23.8919 58.9857 24.107 58.6128C24.3221 58.2398 24.6616 57.9545 25.066 57.807L37.982 53.107C38.4384 52.9408 38.9422 52.9628 39.3824 53.1681C39.8227 53.3733 40.1633 53.7451 40.3295 54.2015C40.4957 54.6579 40.4737 55.1617 40.2684 55.6019C40.0632 56.0421 39.6914 56.3828 39.235 56.549L26.319 61.249C26.1184 61.3223 25.9065 61.3598 25.693 61.36Z" fill="white"/>
<path d="M55.074 9.96199C55.0245 8.02516 55.7315 6.14524 57.045 4.72099C58.2699 3.3751 59.9538 2.53582 61.766 2.368C62.082 2.33733 62.3977 2.32199 62.713 2.32199C64.5383 2.29626 66.3081 2.94952 67.679 4.155C67.872 4.31785 68.0556 4.49145 68.229 4.67499C68.4096 4.85184 68.5347 5.07752 68.5891 5.3244C68.6434 5.57128 68.6247 5.82863 68.535 6.06499C68.4328 6.37778 68.2281 6.64697 67.954 6.82899H67.939C67.7352 6.97304 67.4943 7.05539 67.245 7.06621C66.9957 7.07702 66.7485 7.01585 66.533 6.89C66.3791 6.80564 66.2397 6.69726 66.12 6.56898C65.7006 6.07903 65.1771 5.68893 64.5876 5.42717C63.9982 5.16541 63.3577 5.03859 62.713 5.05598C62.0421 5.03558 61.3746 5.15888 60.7552 5.41759C60.1359 5.67629 59.579 6.06443 59.122 6.55598C58.261 7.47873 57.7946 8.70128 57.822 9.963C57.8072 10.6025 57.9218 11.2384 58.1588 11.8326C58.3958 12.4267 58.7503 12.9669 59.2012 13.4206C59.6521 13.8744 60.19 14.2324 60.7826 14.4732C61.3753 14.714 62.0104 14.8327 62.65 14.822C63.3615 14.8424 64.0672 14.6892 64.7061 14.3755C65.345 14.0619 65.898 13.5973 66.317 13.022C66.4608 12.824 66.6572 12.6703 66.8841 12.5786C67.1109 12.4868 67.359 12.4606 67.6 12.503C67.7712 12.5229 67.937 12.5748 68.089 12.656C68.2006 12.706 68.3022 12.7758 68.389 12.862C68.473 12.9452 68.5474 13.0374 68.611 13.137C68.673 13.2356 68.7243 13.3405 68.764 13.45C68.8044 13.5605 68.8276 13.6765 68.833 13.794C68.8382 13.9089 68.8332 14.024 68.818 14.138C68.8012 14.2543 68.7675 14.3675 68.718 14.474C68.6648 14.5888 68.5976 14.6966 68.518 14.795C67.4185 16.1918 65.8493 17.142 64.102 17.469C63.6443 17.5607 63.1788 17.607 62.712 17.607C60.796 17.6757 58.9289 16.994 57.5078 15.707C56.0867 14.4201 55.224 12.6294 55.103 10.716C55.0837 10.458 55.074 10.2067 55.074 9.96199Z" fill="white"/>
<path d="M72.584 2.33699C72.8075 2.32847 73.0289 2.38257 73.2232 2.49318C73.4176 2.60379 73.5772 2.76651 73.684 2.96298C73.8019 3.162 73.865 3.38869 73.867 3.62V16.32C73.8755 16.5435 73.8214 16.7649 73.7108 16.9592C73.6002 17.1536 73.4375 17.3132 73.241 17.42C73.043 17.5404 72.8157 17.6037 72.584 17.603C72.3608 17.6097 72.1401 17.5548 71.9461 17.4444C71.7521 17.334 71.5922 17.1722 71.484 16.977C71.3726 16.776 71.3147 16.5498 71.316 16.32V3.62C71.3068 3.3964 71.3606 3.17472 71.4713 2.98023C71.5819 2.78573 71.745 2.62626 71.942 2.51999C72.1389 2.41006 72.3587 2.34741 72.584 2.33699Z" fill="white"/>
<path d="M84.944 17.342C84.8238 17.338 84.7096 17.2885 84.6246 17.2034C84.5395 17.1184 84.49 17.0042 84.486 16.884V16.41C84.489 16.3892 84.4872 16.368 84.4805 16.348C84.4739 16.3281 84.4627 16.31 84.4479 16.2951C84.433 16.2803 84.4149 16.2691 84.395 16.2625C84.375 16.2559 84.3538 16.254 84.333 16.257C84.3081 16.252 84.2824 16.2536 84.2584 16.2617C84.2343 16.2698 84.2129 16.284 84.196 16.303C83.7839 16.7303 83.2869 17.0667 82.737 17.2906C82.1871 17.5145 81.5965 17.6209 81.0031 17.603C80.2245 17.6612 79.4451 17.502 78.7517 17.1432C78.0583 16.7845 77.4782 16.2401 77.0761 15.571C76.5488 14.6023 76.2902 13.5102 76.327 12.408V6.60199C76.3192 6.36082 76.3777 6.12214 76.4962 5.91195C76.6147 5.70176 76.7886 5.52814 76.999 5.41C77.2215 5.27814 77.4736 5.20452 77.732 5.19598H77.763C78.0064 5.18682 78.2477 5.24463 78.4605 5.36312C78.6733 5.48162 78.8496 5.65624 78.97 5.86798C79.0997 6.0906 79.1687 6.34335 79.17 6.60098V12.117C79.17 13.7977 79.776 14.7857 80.988 15.081C81.243 15.1435 81.5046 15.1744 81.767 15.173C82.2322 15.1947 82.6936 15.0806 83.0951 14.8446C83.4966 14.6087 83.8207 14.261 84.028 13.844C84.3396 13.2349 84.492 12.5568 84.471 11.873V6.60199C84.4625 6.36245 84.5191 6.1251 84.6348 5.91519C84.7505 5.70528 84.921 5.53068 85.1281 5.41C85.3516 5.28081 85.603 5.20738 85.861 5.19598C86.1044 5.18693 86.3457 5.2448 86.5585 5.36328C86.7713 5.48176 86.9475 5.65632 87.068 5.86798C87.1976 6.09062 87.2666 6.34336 87.268 6.60098V15.02C87.2772 15.3778 87.2003 15.7325 87.0436 16.0543C86.887 16.3761 86.6553 16.6555 86.368 16.869C85.9582 17.1788 85.4578 17.345 84.944 17.342Z" fill="white"/>
<path d="M92.569 16.287C92.5764 16.4787 92.5285 16.6686 92.431 16.8338C92.3334 16.9991 92.1904 17.1328 92.019 17.219C91.857 17.3003 91.6799 17.3473 91.4989 17.357H90.918C90.724 17.3662 90.5318 17.3173 90.3658 17.2167C90.1998 17.116 90.0675 16.9682 89.9859 16.792C89.8979 16.6399 89.8507 16.4677 89.849 16.292V3.702C89.8408 3.46672 89.8979 3.23377 90.0138 3.02889C90.1298 2.824 90.3001 2.65514 90.506 2.54099C90.7236 2.41063 90.9705 2.33705 91.224 2.327C91.4593 2.31885 91.6922 2.3759 91.8971 2.49184C92.102 2.60778 92.2708 2.77811 92.385 2.984C92.5158 3.20066 92.5849 3.44892 92.5849 3.702V6.51299C92.5822 6.53641 92.5846 6.56015 92.5918 6.58258C92.5991 6.60501 92.6111 6.62561 92.6271 6.64298C92.643 6.66035 92.6625 6.67408 92.6843 6.68323C92.706 6.69238 92.7294 6.69674 92.753 6.696C92.8042 6.69056 92.8525 6.66923 92.891 6.635C93.7652 5.75547 94.9509 5.25603 96.191 5.245C96.2719 5.23505 96.3534 5.23004 96.435 5.23C97.8636 5.2079 99.2466 5.73271 100.301 6.69699C100.935 7.31024 101.438 8.04688 101.777 8.86156C102.116 9.67624 102.284 10.5517 102.272 11.434C102.302 12.2877 102.15 13.138 101.826 13.9283C101.502 14.7187 101.014 15.4311 100.393 16.018C99.4092 16.9718 98.1099 17.5318 96.741 17.592C96.6496 17.602 96.5579 17.6069 96.466 17.607C95.8007 17.6285 95.1382 17.512 94.5202 17.2649C93.9022 17.0177 93.342 16.6453 92.875 16.171C92.8606 16.1497 92.8412 16.1324 92.8185 16.1203C92.7959 16.1083 92.7706 16.102 92.745 16.102C92.7193 16.102 92.694 16.1083 92.6714 16.1203C92.6487 16.1324 92.6294 16.1497 92.615 16.171C92.5877 16.2038 92.5715 16.2444 92.569 16.287ZM99.569 11.387C99.583 10.8656 99.4821 10.3476 99.2735 9.86955C99.065 9.39154 98.7538 8.96527 98.362 8.62099C97.6952 8.0156 96.8168 7.69728 95.917 7.73499C95.4164 7.73844 94.9229 7.85416 94.4729 8.07361C94.0229 8.29306 93.6279 8.61064 93.3169 9.00299C92.712 9.74671 92.4092 10.6909 92.4687 11.6477C92.5282 12.6045 92.9456 13.5039 93.638 14.167C94.2828 14.7613 95.129 15.089 96.006 15.084C96.4789 15.0928 96.9483 15.0022 97.384 14.818C97.8196 14.6339 98.2117 14.3603 98.535 14.015C98.8735 13.6671 99.1392 13.2551 99.3162 12.8031C99.4933 12.3511 99.5782 11.8683 99.566 11.383L99.569 11.387Z" fill="white"/>
<path d="M55.593 36.943L55.853 36.729C56.0359 36.5721 56.261 36.4725 56.5002 36.4426C56.7394 36.4127 56.9821 36.4539 57.198 36.561C57.3635 36.6273 57.5141 36.7259 57.641 36.851C57.9705 37.189 58.3651 37.4567 58.801 37.6378C59.2369 37.819 59.705 37.9099 60.177 37.905C60.5676 37.9403 60.9603 37.8661 61.3111 37.6907C61.6619 37.5153 61.9569 37.2456 62.163 36.912C62.3444 36.6126 62.4396 36.269 62.438 35.919C62.438 35.277 61.99 34.7627 61.094 34.376C60.7887 34.2427 60.203 34.0427 59.337 33.776C58.3599 33.4994 57.4282 33.0824 56.571 32.538C56.1031 32.195 55.7262 31.7428 55.4731 31.2208C55.22 30.6988 55.0984 30.1228 55.119 29.543C55.1099 28.9541 55.2361 28.3711 55.4879 27.8386C55.7396 27.3062 56.1102 26.8387 56.571 26.472C57.5498 25.6661 58.7877 25.2426 60.055 25.28C61.3277 25.2558 62.5801 25.6007 63.661 26.273C63.8645 26.3935 64.0292 26.5699 64.1355 26.7812C64.2419 26.9924 64.2854 27.2297 64.261 27.465C64.2462 27.6566 64.1908 27.8429 64.0986 28.0115C64.0064 28.1801 63.8793 28.3271 63.726 28.443C63.5404 28.5955 63.3148 28.6911 63.0761 28.7183C62.8375 28.7454 62.5961 28.703 62.381 28.596C62.2801 28.542 62.1832 28.4808 62.091 28.413C61.5146 27.9662 60.8032 27.7291 60.074 27.741C59.6902 27.6907 59.3002 27.7589 58.9561 27.9363C58.6121 28.1138 58.3305 28.3921 58.149 28.734C58.0556 28.956 58.0037 29.1933 57.996 29.434C57.996 30.0147 58.378 30.4833 59.142 30.84C59.7614 31.1017 60.394 31.3313 61.037 31.528C62.1482 31.8308 63.1908 32.3445 64.108 33.041C64.5091 33.4048 64.8262 33.8516 65.0372 34.3503C65.2483 34.8491 65.3481 35.3877 65.33 35.929C65.3386 36.518 65.2265 37.1026 65.0005 37.6466C64.7745 38.1906 64.4395 38.6825 64.016 39.092C63.5099 39.5799 62.911 39.9611 62.2548 40.2131C61.5986 40.4651 60.8985 40.5827 60.196 40.559C58.5343 40.5826 56.9133 40.0442 55.596 39.031C55.4038 38.8902 55.2558 38.6976 55.1691 38.4757C55.0825 38.2537 55.061 38.0117 55.107 37.778C55.1599 37.4491 55.3331 37.1515 55.593 36.943Z" fill="white"/>
<path d="M68.291 33.292C68.5153 31.8191 69.2911 30.4865 70.461 29.564C71.5986 28.6253 73.0355 28.1263 74.51 28.158C75.314 28.1528 76.1107 28.3114 76.8515 28.6239C77.5922 28.9365 78.2616 29.3965 78.819 29.976C78.9493 30.1063 79.0719 30.2442 79.186 30.389C79.3479 30.5687 79.4532 30.7921 79.4888 31.0313C79.5244 31.2706 79.4886 31.515 79.386 31.734C79.3224 31.8884 79.2289 32.0287 79.1108 32.1468C78.9927 32.2649 78.8524 32.3584 78.698 32.422L78.652 32.453C78.4319 32.555 78.1865 32.589 77.9469 32.5509C77.7074 32.5128 77.4846 32.4042 77.307 32.239C77.2306 32.1729 77.159 32.1014 77.093 32.025C76.7782 31.6184 76.3721 31.2918 75.9075 31.0715C75.4429 30.8512 74.933 30.7434 74.419 30.757C73.9321 30.7449 73.4484 30.84 73.0023 31.0354C72.5561 31.2309 72.1583 31.5219 71.837 31.888C71.3521 32.3978 71.0272 33.0386 70.9025 33.731C70.7779 34.4235 70.8588 35.1373 71.1355 35.7843C71.4121 36.4312 71.8722 36.9829 72.4589 37.3712C73.0457 37.7595 73.7334 37.9673 74.437 37.969C74.9581 37.984 75.4751 37.8723 75.9434 37.6434C76.4118 37.4145 76.8176 37.0753 77.126 36.655C77.2627 36.46 77.4508 36.3068 77.6693 36.2123C77.8879 36.1179 78.1283 36.0859 78.364 36.12C78.4835 36.1399 78.601 36.1708 78.715 36.212L78.761 36.243C78.9742 36.3228 79.1605 36.4613 79.2983 36.6425C79.4361 36.8237 79.5199 37.0402 79.54 37.267C79.5671 37.4357 79.5594 37.6082 79.5172 37.7739C79.4751 37.9395 79.3995 38.0947 79.295 38.23C78.7929 38.9028 78.15 39.4579 77.411 39.8564C76.6721 40.2549 75.855 40.4871 75.017 40.537C74.803 40.557 74.5943 40.5673 74.391 40.568C72.8365 40.5769 71.3361 39.9975 70.1911 38.9459C69.0461 37.8944 68.3412 36.4487 68.218 34.899C68.1763 34.3623 68.2008 33.8226 68.291 33.292Z" fill="white"/>
<path d="M83.279 29.441C83.5025 29.4325 83.7239 29.4866 83.9182 29.5972C84.1126 29.7078 84.2722 29.8705 84.379 30.067C84.497 30.266 84.5601 30.4927 84.562 30.724V39.28C84.5705 39.5035 84.5164 39.7249 84.4058 39.9193C84.2952 40.1136 84.1325 40.2732 83.936 40.38C83.738 40.5004 83.5107 40.5637 83.279 40.563C83.0558 40.5697 82.8352 40.5148 82.6411 40.4044C82.4471 40.294 82.2872 40.1323 82.179 39.937C82.0676 39.736 82.0098 39.5098 82.011 39.28V30.724C82.0018 30.5004 82.0556 30.2787 82.1663 30.0842C82.277 29.8897 82.44 29.7303 82.637 29.624C82.8339 29.5141 83.0537 29.4514 83.279 29.441ZM82.057 26.553C82.0496 26.3315 82.1025 26.1122 82.2102 25.9184C82.3178 25.7247 82.476 25.5638 82.668 25.453C82.8719 25.3337 83.1037 25.2705 83.34 25.27C83.5615 25.2626 83.7808 25.3156 83.9746 25.4232C84.1683 25.5308 84.3292 25.6891 84.44 25.881C84.5593 26.0849 84.6224 26.3168 84.623 26.553C84.6304 26.7745 84.5774 26.9939 84.4698 27.1876C84.3622 27.3814 84.2039 27.5422 84.012 27.653C83.8081 27.7724 83.5762 27.8355 83.34 27.836C83.1184 27.8435 82.899 27.7906 82.7053 27.683C82.5115 27.5753 82.3507 27.417 82.24 27.225C82.1207 27.0211 82.0575 26.7893 82.057 26.553Z" fill="white"/>
<path d="M87.038 34.178C87.0643 32.6094 87.6817 31.1086 88.7666 29.9755C89.8515 28.8424 91.324 28.1605 92.8899 28.066C93.1139 28.056 93.3379 28.051 93.5619 28.051C94.3624 28.0613 95.1526 28.2329 95.8851 28.5558C96.6176 28.8787 97.2773 29.3461 97.8249 29.93C98.9133 31.0967 99.5004 32.6439 99.46 34.239V34.361C99.469 34.5354 99.4239 34.7083 99.3308 34.856C99.2377 35.0037 99.1012 35.1189 98.94 35.186C98.815 35.2457 98.6784 35.2771 98.54 35.278H90.0749C90.0041 35.2719 89.9338 35.2942 89.8795 35.3399C89.8251 35.3857 89.7911 35.4512 89.785 35.522C89.7734 35.5733 89.7787 35.6269 89.8 35.675C89.9532 36.1885 90.2274 36.6576 90.5996 37.0431C90.9718 37.4285 91.4312 37.719 91.939 37.89C92.4017 38.0451 92.887 38.1225 93.375 38.119C93.9047 38.1364 94.4316 38.0341 94.9164 37.8197C95.4011 37.6054 95.8313 37.2845 96.175 36.881C96.3693 36.6575 96.6357 36.5091 96.928 36.4616C97.2203 36.4141 97.5199 36.4705 97.775 36.621C97.9793 36.7237 98.1491 36.884 98.2632 37.0822C98.3773 37.2804 98.4308 37.5077 98.417 37.736C98.4132 38.0546 98.2999 38.3621 98.096 38.607C97.4948 39.2518 96.7622 39.76 95.9478 40.0974C95.1334 40.4349 94.256 40.5936 93.375 40.563C92.2005 40.5831 91.0422 40.2875 90.021 39.707C89.0653 39.1647 88.2835 38.3618 87.767 37.392C87.2457 36.4033 86.9943 35.2948 87.038 34.178ZM90.277 32.956H96.236C96.2721 32.96 96.3088 32.9569 96.3437 32.9467C96.3787 32.9366 96.4113 32.9197 96.4398 32.8969C96.4682 32.8742 96.4919 32.846 96.5094 32.8141C96.5269 32.7822 96.538 32.7472 96.542 32.711C96.542 32.6596 96.5369 32.6084 96.527 32.558C96.3319 31.9842 95.9676 31.4829 95.4821 31.1202C94.9966 30.7575 94.4126 30.5503 93.807 30.526C93.6347 30.5059 93.4614 30.4959 93.288 30.496C92.7428 30.4761 92.2007 30.5863 91.7065 30.8174C91.2124 31.0485 90.7803 31.3939 90.446 31.825C90.2735 32.0481 90.125 32.2887 90.003 32.543C89.9819 32.5751 89.9682 32.6115 89.963 32.6496C89.9578 32.6877 89.9612 32.7265 89.9729 32.7631C89.9846 32.7997 90.0043 32.8332 90.0306 32.8612C90.057 32.8892 90.0892 32.911 90.125 32.925C90.1732 32.9451 90.2248 32.9557 90.277 32.956Z" fill="white"/>
<path d="M103.86 28.418H104.135C104.257 28.4096 104.377 28.4429 104.477 28.5123C104.577 28.5818 104.65 28.6832 104.685 28.8C104.705 28.859 104.715 28.9207 104.716 28.983V29.518C104.716 29.62 104.767 29.6657 104.869 29.655C104.903 29.6483 104.935 29.6324 104.961 29.609C105.39 29.1393 105.915 28.7668 106.5 28.5164C107.085 28.266 107.717 28.1435 108.353 28.157C109.18 28.0841 110.011 28.2514 110.746 28.639C111.48 29.0266 112.087 29.6179 112.494 30.342C112.967 31.2732 113.198 32.3082 113.166 33.352V39.158C113.175 39.3975 113.118 39.6349 113.002 39.8448C112.887 40.0547 112.716 40.2293 112.509 40.35C112.285 40.4793 112.033 40.5527 111.775 40.564H111.729C111.488 40.5718 111.249 40.5133 111.039 40.3948C110.829 40.2763 110.655 40.1024 110.537 39.892C110.399 39.6725 110.324 39.4185 110.323 39.159V33.643C110.323 32.115 109.773 31.1573 108.673 30.77C108.325 30.6441 107.958 30.5821 107.588 30.587C107.124 30.5651 106.662 30.6702 106.253 30.891C105.844 31.1118 105.503 31.4399 105.266 31.84C104.903 32.4606 104.718 33.1691 104.731 33.888V39.159C104.74 39.3985 104.683 39.6359 104.567 39.8458C104.452 40.0557 104.281 40.2303 104.074 40.351C103.85 40.4801 103.599 40.5535 103.341 40.565C103.1 40.5727 102.861 40.5142 102.651 40.3957C102.441 40.2772 102.267 40.1033 102.149 39.893C102.011 39.6734 101.937 39.4195 101.935 39.16V30.344C101.925 30.0327 101.995 29.724 102.14 29.4481C102.284 29.1722 102.498 28.9386 102.76 28.77C103.081 28.5405 103.466 28.4174 103.86 28.418Z" fill="white"/>
<path d="M116.985 28.57H117.55C117.611 28.5595 117.667 28.5305 117.711 28.4868C117.755 28.4431 117.784 28.387 117.795 28.326V27.272C117.795 27.1064 117.835 26.9434 117.912 26.797C117.989 26.6505 118.101 26.5252 118.238 26.432L119.766 25.393C119.859 25.3182 119.977 25.2814 120.096 25.2899C120.215 25.2985 120.327 25.3517 120.408 25.439C120.518 25.5443 120.583 25.6873 120.591 25.839V28.33C120.587 28.3572 120.589 28.385 120.596 28.4115C120.603 28.4381 120.615 28.4629 120.633 28.4844C120.65 28.5059 120.671 28.5236 120.696 28.5364C120.72 28.5493 120.747 28.5569 120.774 28.559C120.795 28.5592 120.816 28.5643 120.835 28.574H121.782C122.002 28.5654 122.219 28.6181 122.411 28.7259C122.603 28.8338 122.76 28.9927 122.867 29.185C122.969 29.3786 123.026 29.5924 123.035 29.811C123.041 30.03 122.986 30.2465 122.875 30.4357C122.765 30.6249 122.603 30.7792 122.409 30.881C122.219 30.9921 122.002 31.0501 121.782 31.049H120.835C120.773 31.0565 120.715 31.0846 120.671 31.1288C120.626 31.173 120.598 31.2308 120.59 31.293V35.541C120.514 36.205 120.642 36.8765 120.957 37.466C121.114 37.6481 121.324 37.7764 121.557 37.833C121.854 37.9101 122.128 38.0572 122.357 38.2619C122.586 38.4667 122.762 38.7232 122.871 39.01C122.972 39.2629 123.029 39.5316 123.039 39.804V40.568H122.639C120.839 40.568 119.591 40.2346 118.896 39.568C118.201 38.9013 117.834 37.6917 117.796 35.939V31.294C117.785 31.233 117.756 31.1768 117.712 31.1331C117.668 31.0895 117.612 31.0604 117.551 31.05H116.986C116.769 31.057 116.554 31.0036 116.365 30.8957C116.176 30.7878 116.021 30.6297 115.917 30.439C115.808 30.2481 115.751 30.0326 115.749 29.813C115.739 29.5951 115.792 29.379 115.9 29.1896C116.008 29.0002 116.167 28.8454 116.36 28.743C116.55 28.6329 116.765 28.5733 116.985 28.57Z" fill="white"/>
<path d="M126.901 29.441C127.125 29.4325 127.346 29.4866 127.54 29.5972C127.735 29.7078 127.894 29.8705 128.001 30.067C128.119 30.266 128.182 30.4927 128.184 30.724V39.28C128.193 39.5035 128.139 39.7249 128.028 39.9193C127.917 40.1136 127.755 40.2732 127.558 40.38C127.36 40.5004 127.133 40.5638 126.901 40.563C126.678 40.5697 126.457 40.5148 126.263 40.4044C126.069 40.294 125.909 40.1323 125.801 39.937C125.69 39.736 125.632 39.5098 125.633 39.28V30.724C125.624 30.5004 125.678 30.2787 125.788 30.0842C125.899 29.8897 126.062 29.7303 126.259 29.624C126.456 29.5141 126.676 29.4514 126.901 29.441ZM125.679 26.553C125.672 26.3315 125.724 26.1121 125.832 25.9183C125.94 25.7245 126.098 25.5637 126.29 25.453C126.494 25.3336 126.726 25.2705 126.962 25.27C127.183 25.2626 127.403 25.3156 127.597 25.4232C127.79 25.5308 127.951 25.6891 128.062 25.881C128.181 26.0849 128.245 26.3168 128.245 26.553C128.252 26.7745 128.199 26.9939 128.092 27.1876C127.984 27.3814 127.826 27.5422 127.634 27.653C127.43 27.7724 127.198 27.8355 126.962 27.836C126.74 27.8435 126.521 27.7906 126.327 27.683C126.134 27.5753 125.973 27.417 125.862 27.225C125.743 27.0211 125.68 26.7893 125.679 26.553Z" fill="white"/>
<path d="M130.644 30.496C130.636 30.29 130.689 30.0862 130.795 29.9097C130.902 29.7333 131.058 29.5919 131.244 29.503C131.411 29.423 131.594 29.3813 131.779 29.381H132.497V29.35C132.497 27.55 132.966 26.3227 133.903 25.668C134.862 25.1167 135.962 24.8616 137.066 24.935H137.28V26.616C137.289 26.7512 137.254 26.8856 137.179 26.9988C137.105 27.112 136.996 27.1977 136.868 27.243C136.798 27.2633 136.726 27.2787 136.654 27.289C135.9 27.3403 135.426 27.5737 135.233 27.989C135.103 28.3409 135.041 28.7141 135.05 29.089C135.046 29.1223 135.048 29.1562 135.058 29.1884C135.067 29.2207 135.083 29.2507 135.105 29.2765C135.126 29.3023 135.153 29.3234 135.183 29.3385C135.213 29.3535 135.245 29.3622 135.279 29.364C135.293 29.3722 135.309 29.3773 135.325 29.379H136.15C136.354 29.37 136.556 29.42 136.732 29.5231C136.908 29.6261 137.051 29.7778 137.143 29.96C137.232 30.1243 137.279 30.3081 137.28 30.495C137.288 30.701 137.235 30.9048 137.129 31.0813C137.022 31.2577 136.866 31.3991 136.68 31.488C136.517 31.5799 136.332 31.6274 136.145 31.626H135.32C135.249 31.6317 135.182 31.6625 135.132 31.7129C135.082 31.7633 135.051 31.83 135.045 31.901V39.281C135.054 39.5045 134.999 39.7259 134.889 39.9202C134.778 40.1146 134.615 40.2742 134.419 40.381C134.22 40.4989 133.993 40.5621 133.762 40.564C133.539 40.5707 133.318 40.5158 133.124 40.4054C132.93 40.295 132.77 40.1333 132.662 39.938C132.551 39.737 132.493 39.5108 132.494 39.281V31.901C132.484 31.8317 132.452 31.7674 132.402 31.7178C132.353 31.6683 132.288 31.636 132.219 31.626H131.776C131.57 31.6338 131.366 31.5812 131.19 31.4746C131.013 31.368 130.872 31.212 130.783 31.026C130.692 30.8644 130.644 30.6817 130.644 30.496Z" fill="white"/>
<path d="M141.232 29.441C141.455 29.4325 141.677 29.4866 141.871 29.5972C142.066 29.7078 142.225 29.8705 142.332 30.067C142.45 30.266 142.513 30.4927 142.515 30.724V39.28C142.524 39.5035 142.469 39.7249 142.359 39.9193C142.248 40.1136 142.086 40.2732 141.889 40.38C141.691 40.5004 141.464 40.5637 141.232 40.563C141.009 40.5697 140.788 40.5148 140.594 40.4044C140.4 40.294 140.24 40.1323 140.132 39.937C140.021 39.736 139.963 39.5098 139.964 39.28V30.724C139.955 30.5004 140.009 30.2787 140.119 30.0842C140.23 29.8897 140.393 29.7303 140.59 29.624C140.787 29.5141 141.007 29.4514 141.232 29.441ZM140.01 26.553C140.003 26.3315 140.056 26.1122 140.163 25.9184C140.271 25.7247 140.429 25.5638 140.621 25.453C140.825 25.3336 141.057 25.2705 141.293 25.27C141.515 25.2626 141.734 25.3156 141.928 25.4232C142.121 25.5308 142.282 25.6891 142.393 25.881C142.512 26.0849 142.576 26.3168 142.576 26.553C142.583 26.7745 142.531 26.9939 142.423 27.1877C142.315 27.3815 142.157 27.5423 141.965 27.653C141.761 27.7724 141.529 27.8355 141.293 27.836C141.071 27.8435 140.852 27.7906 140.658 27.683C140.465 27.5753 140.304 27.417 140.193 27.225C140.074 27.0211 140.011 26.7893 140.01 26.553Z" fill="white"/>
<path d="M154.692 29.487C154.685 29.2953 154.732 29.1054 154.83 28.9402C154.928 28.7749 155.071 28.6412 155.242 28.555C155.405 28.4765 155.581 28.43 155.761 28.418H156.342C156.538 28.41 156.731 28.4592 156.9 28.5595C157.068 28.6598 157.203 28.807 157.289 28.983C157.368 29.1379 157.41 29.3091 157.411 29.483V42.837C157.418 43.0742 157.361 43.3091 157.245 43.5163C157.129 43.7236 156.96 43.8956 156.754 44.014C156.533 44.1356 156.288 44.2041 156.036 44.214C155.801 44.222 155.568 44.1649 155.363 44.049C155.158 43.933 154.989 43.7628 154.875 43.557C154.744 43.3403 154.675 43.0921 154.675 42.839V39.264C154.678 39.2406 154.675 39.2168 154.668 39.1944C154.661 39.172 154.649 39.1514 154.633 39.134C154.617 39.1166 154.597 39.1029 154.576 39.0937C154.554 39.0846 154.531 39.0803 154.507 39.081C154.456 39.0866 154.408 39.1079 154.37 39.142C153.496 40.0215 152.31 40.5209 151.07 40.532C150.994 40.5416 150.918 40.5466 150.841 40.547C149.408 40.5712 148.019 40.0464 146.96 39.08C146.324 38.468 145.821 37.7316 145.481 36.9166C145.142 36.1016 144.975 35.2256 144.989 34.343C144.959 33.4893 145.111 32.639 145.435 31.8486C145.759 31.0583 146.247 30.3459 146.868 29.759C147.852 28.8052 149.151 28.2452 150.52 28.185C150.611 28.175 150.703 28.17 150.795 28.17C151.46 28.1466 152.124 28.2622 152.742 28.5095C153.36 28.7567 153.92 29.1302 154.386 29.606C154.4 29.6272 154.42 29.6446 154.442 29.6566C154.465 29.6687 154.49 29.675 154.516 29.675C154.542 29.675 154.567 29.6687 154.59 29.6566C154.612 29.6446 154.632 29.6272 154.646 29.606C154.674 29.5724 154.69 29.5306 154.692 29.487ZM147.692 34.387C147.676 34.9086 147.776 35.4274 147.984 35.9057C148.193 36.3841 148.506 36.8101 148.899 37.153C149.568 37.7554 150.445 38.0733 151.344 38.039C151.845 38.0356 152.338 37.9198 152.788 37.7004C153.238 37.4809 153.633 37.1633 153.944 36.771C154.549 36.0273 154.852 35.0831 154.792 34.1263C154.733 33.1694 154.315 32.2701 153.623 31.607C152.983 31.0146 152.142 30.6869 151.27 30.69C150.755 30.678 150.245 30.7833 149.777 30.9977C149.309 31.2122 148.897 31.5303 148.57 31.928C147.991 32.6171 147.679 33.4918 147.692 34.392V34.387Z" fill="white"/>
<path d="M168.673 40.305C168.553 40.301 168.439 40.2514 168.354 40.1664C168.269 40.0814 168.219 39.9672 168.215 39.847V39.373C168.218 39.3522 168.216 39.331 168.21 39.311C168.203 39.2911 168.192 39.273 168.177 39.2581C168.162 39.2433 168.144 39.2321 168.124 39.2255C168.104 39.2188 168.083 39.2169 168.062 39.22C168.037 39.215 168.011 39.2166 167.987 39.2247C167.963 39.2328 167.942 39.247 167.925 39.266C167.432 39.7353 166.844 40.0922 166.2 40.3122C165.557 40.5322 164.873 40.61 164.196 40.5404C163.519 40.4707 162.866 40.2552 162.28 39.9086C161.695 39.5621 161.192 39.0928 160.805 38.533C160.278 37.5643 160.019 36.4722 160.056 35.37V29.564C160.048 29.3228 160.107 29.0841 160.225 28.8739C160.344 28.6637 160.518 28.4901 160.728 28.372C160.951 28.2401 161.203 28.1665 161.461 28.158H161.492C161.735 28.1488 161.977 28.2066 162.19 28.3251C162.402 28.4436 162.579 28.6182 162.699 28.83C162.829 29.0526 162.898 29.3054 162.899 29.563V35.079C162.899 36.7596 163.505 37.7477 164.717 38.043C164.972 38.1054 165.234 38.1363 165.496 38.135C165.961 38.1567 166.423 38.0426 166.824 37.8066C167.226 37.5707 167.55 37.223 167.757 36.806C168.069 36.1969 168.221 35.5188 168.2 34.835V29.564C168.191 29.3244 168.248 29.087 168.364 28.8771C168.479 28.6672 168.65 28.4926 168.857 28.372C169.081 28.2427 169.332 28.1694 169.59 28.158C169.833 28.1488 170.075 28.2066 170.288 28.3251C170.5 28.4436 170.677 28.6182 170.797 28.83C170.927 29.0526 170.996 29.3054 170.997 29.563V37.982C171.006 38.3398 170.929 38.6945 170.773 39.0163C170.616 39.3381 170.384 39.6175 170.097 39.831C169.687 40.1412 169.187 40.3078 168.673 40.305Z" fill="white"/>
<path d="M173.594 34.178C173.62 32.6094 174.237 31.1084 175.322 29.9753C176.407 28.8421 177.88 28.1602 179.446 28.066C179.67 28.056 179.894 28.051 180.118 28.051C180.918 28.0613 181.709 28.2329 182.441 28.5558C183.174 28.8787 183.833 29.3461 184.381 29.93C185.469 31.0967 186.056 32.6439 186.016 34.239V34.361C186.025 34.5354 185.98 34.7083 185.887 34.856C185.794 35.0037 185.657 35.1189 185.496 35.186C185.371 35.2457 185.235 35.2771 185.096 35.278H176.631C176.56 35.2719 176.49 35.2942 176.436 35.3399C176.381 35.3857 176.347 35.4512 176.341 35.522C176.329 35.5733 176.335 35.6269 176.356 35.675C176.509 36.1885 176.783 36.6576 177.156 37.0431C177.528 37.4285 177.987 37.719 178.495 37.89C178.958 38.0451 179.443 38.1225 179.931 38.119C180.461 38.1364 180.988 38.0342 181.472 37.8198C181.957 37.6055 182.387 37.2846 182.731 36.881C182.925 36.6575 183.192 36.5091 183.484 36.4616C183.776 36.4141 184.076 36.4705 184.331 36.621C184.535 36.7237 184.705 36.884 184.819 37.0822C184.933 37.2804 184.987 37.5077 184.973 37.736C184.969 38.0546 184.856 38.3621 184.652 38.607C184.051 39.2518 183.318 39.76 182.504 40.0974C181.689 40.4349 180.812 40.5936 179.931 40.563C178.757 40.5831 177.598 40.2874 176.577 39.707C175.621 39.1647 174.84 38.3618 174.323 37.392C173.802 36.4034 173.55 35.2948 173.594 34.178ZM176.833 32.956H182.792C182.828 32.96 182.865 32.9569 182.9 32.9467C182.935 32.9366 182.967 32.9197 182.996 32.8969C183.024 32.8742 183.048 32.846 183.065 32.8141C183.083 32.7822 183.094 32.7472 183.098 32.711C183.098 32.6596 183.093 32.6084 183.083 32.558C182.888 31.9842 182.524 31.4829 182.038 31.1202C181.553 30.7575 180.969 30.5503 180.363 30.526C180.19 30.5059 180.017 30.4959 179.843 30.496C179.298 30.4761 178.756 30.5863 178.262 30.8174C177.767 31.0485 177.335 31.3939 177.001 31.825C176.828 32.0481 176.68 32.2887 176.558 32.543C176.537 32.5751 176.523 32.6115 176.518 32.6496C176.513 32.6877 176.516 32.7265 176.528 32.7631C176.54 32.7997 176.559 32.8332 176.586 32.8612C176.612 32.8892 176.644 32.911 176.68 32.925C176.729 32.9451 176.78 32.9557 176.833 32.956Z" fill="white"/>
<path d="M55.074 57.356C55.0338 56.5585 55.156 55.7611 55.4335 55.0122C55.711 54.2634 56.1378 53.5788 56.688 53C57.2383 52.4213 57.9005 51.9604 58.6343 51.6455C59.3682 51.3305 60.1584 51.1681 60.957 51.168C62.2455 51.1336 63.4962 51.6052 64.441 52.482C64.4559 52.5034 64.4761 52.5206 64.4996 52.532C64.5231 52.5434 64.5491 52.5486 64.5752 52.5471C64.6012 52.5456 64.6265 52.5374 64.6485 52.5234C64.6705 52.5094 64.6886 52.49 64.701 52.467C64.7272 52.4371 64.7434 52.3996 64.747 52.36V49.64C64.7388 49.4048 64.7959 49.1718 64.9118 48.9669C65.0278 48.7621 65.1981 48.5932 65.404 48.479C65.6206 48.3482 65.8689 48.279 66.122 48.279H66.137C66.3727 48.271 66.6061 48.3264 66.8131 48.4394C67.0202 48.5523 67.1931 48.7186 67.314 48.921C67.433 49.1426 67.5013 49.3878 67.514 49.639V61.908C67.5211 62.1453 67.4638 62.38 67.3481 62.5872C67.2324 62.7945 67.0626 62.9666 66.857 63.085C66.6403 63.2158 66.3921 63.2849 66.139 63.285C65.9037 63.2931 65.6707 63.2361 65.4659 63.1202C65.261 63.0043 65.0922 62.8339 64.978 62.628C64.8472 62.4114 64.778 62.1631 64.778 61.91C64.778 61.859 64.753 61.839 64.702 61.849C64.685 61.8567 64.6694 61.8672 64.656 61.88C64.2613 62.3449 63.7787 62.7272 63.2359 63.0052C62.6932 63.2832 62.1008 63.4513 61.493 63.5C60.7199 63.5806 59.9385 63.5015 59.1972 63.2675C58.456 63.0336 57.7708 62.6498 57.184 62.14C56.5517 61.6061 56.0386 60.9453 55.6781 60.2004C55.3175 59.4555 55.1175 58.6431 55.091 57.816C55.0796 57.662 55.074 57.5087 55.074 57.356ZM64.914 57.432C64.9438 56.9106 64.8595 56.3889 64.6669 55.9034C64.4743 55.4179 64.1781 54.9803 63.799 54.6211C63.1389 53.9982 62.2614 53.6583 61.354 53.674C60.8395 53.6621 60.329 53.7673 59.8612 53.9818C59.3935 54.1963 58.9806 54.5144 58.654 54.912C58.0393 55.6575 57.7307 56.6085 57.7903 57.5728C57.8498 58.5372 58.2733 59.4429 58.975 60.107C59.6378 60.7001 60.4998 61.0215 61.389 61.007C61.8885 61.0134 62.3829 60.9068 62.8354 60.6951C63.2878 60.4835 63.6867 60.1724 64.002 59.785C64.568 59.1295 64.8886 58.2978 64.909 57.432H64.914Z" fill="white"/>
<path d="M70.124 57.142C70.1501 55.5734 70.7674 54.0724 71.8524 52.9393C72.9373 51.8061 74.41 51.1242 75.976 51.03C76.2 51.02 76.424 51.015 76.648 51.015C77.4485 51.0252 78.2386 51.1969 78.9711 51.5198C79.7037 51.8426 80.3635 52.31 80.911 52.894C81.9994 54.0607 82.5864 55.608 82.546 57.203V57.325C82.555 57.4994 82.5099 57.6722 82.4168 57.8199C82.3237 57.9677 82.1872 58.0829 82.026 58.15C81.901 58.2096 81.7645 58.2411 81.626 58.242H73.161C73.0902 58.2359 73.0198 58.2582 72.9655 58.304C72.9111 58.3497 72.8771 58.4152 72.871 58.486C72.8594 58.5372 72.8646 58.5909 72.886 58.639C73.0392 59.1524 73.3135 59.6216 73.6857 60.0071C74.0579 60.3925 74.5172 60.683 75.025 60.854C75.4877 61.0091 75.973 61.0865 76.461 61.083C76.9908 61.1004 77.5176 60.9981 78.0024 60.7838C78.4872 60.5694 78.9173 60.2485 79.261 59.845C79.4553 59.6215 79.7217 59.4732 80.014 59.4257C80.3063 59.3782 80.6059 59.4345 80.861 59.585C81.0654 59.6875 81.2352 59.8479 81.3494 60.0461C81.4635 60.2444 81.5169 60.4717 81.503 60.7C81.4992 61.0186 81.3859 61.3261 81.182 61.571C80.5808 62.2157 79.8483 62.724 79.0338 63.0615C78.2194 63.3989 77.342 63.5576 76.461 63.527C75.2865 63.5471 74.1282 63.2514 73.107 62.671C72.1516 62.1284 71.3699 61.3255 70.853 60.356C70.3317 59.3673 70.0802 58.2588 70.124 57.142ZM73.363 55.92H79.322C79.3582 55.924 79.3948 55.9208 79.4298 55.9107C79.4647 55.9006 79.4973 55.8837 79.5258 55.8609C79.5542 55.8381 79.5779 55.81 79.5954 55.7781C79.6129 55.7462 79.624 55.7112 79.628 55.675C79.628 55.6236 79.6229 55.5724 79.613 55.522C79.4179 54.9482 79.0537 54.4469 78.5681 54.0842C78.0826 53.7214 77.4986 53.5143 76.893 53.49C76.7208 53.4696 76.5474 53.4593 76.374 53.459C75.8288 53.4391 75.2867 53.5493 74.7925 53.7804C74.2984 54.0115 73.8663 54.3568 73.532 54.788C73.3595 55.011 73.211 55.2517 73.089 55.506C73.0679 55.5381 73.0542 55.5745 73.049 55.6126C73.0438 55.6507 73.0472 55.6895 73.0589 55.7261C73.0706 55.7627 73.0903 55.7962 73.1166 55.8242C73.143 55.8522 73.1752 55.874 73.211 55.888C73.2591 55.9084 73.3107 55.9192 73.363 55.92Z" fill="white"/>
<path d="M91.118 48.264C91.3414 48.2555 91.5628 48.3096 91.7572 48.4202C91.9516 48.5308 92.1111 48.6936 92.2179 48.89C92.3359 49.089 92.3991 49.3157 92.401 49.547V62.247C92.4095 62.4705 92.3554 62.6919 92.2448 62.8862C92.1342 63.0806 91.9714 63.2402 91.775 63.347C91.577 63.4674 91.3497 63.5307 91.118 63.53C90.8948 63.5367 90.6741 63.4818 90.4801 63.3714C90.2861 63.261 90.1262 63.0993 90.018 62.904C89.9067 62.703 89.8488 62.4768 89.85 62.247V49.547C89.8407 49.3234 89.8946 49.1017 90.0052 48.9072C90.1159 48.7128 90.279 48.5533 90.4759 48.447C90.6728 48.337 90.8927 48.2743 91.118 48.264Z" fill="white"/>
<path d="M95.166 52.114C95.1146 50.7287 95.074 49.6287 95.044 48.814C95.034 48.4273 95.1866 48.239 95.502 48.249L96.51 48.264C96.6126 48.278 96.7115 48.3123 96.8007 48.3648C96.89 48.4173 96.9679 48.487 97.03 48.57C97.1678 48.7481 97.2332 48.9717 97.213 49.196L97.198 49.211V49.333L97.1829 49.348V49.47L97.168 49.485V49.623L97.153 49.638V49.76L97.138 49.775V49.897L97.1229 49.912V50.034L97.108 50.049V50.171L97.093 50.186V50.324L97.078 50.339V50.461L97.0629 50.476V50.491C96.9509 51.4997 96.8796 52.1617 96.849 52.477C96.8515 52.5851 96.8139 52.6902 96.7433 52.7721C96.6727 52.8539 96.5743 52.9067 96.467 52.92C96.4426 52.929 96.4169 52.934 96.3909 52.935L95.8909 52.92C95.7973 52.9138 95.7059 52.889 95.622 52.8471C95.538 52.8052 95.4633 52.747 95.402 52.676C95.2716 52.5148 95.1898 52.3199 95.166 52.114Z" fill="white"/>
<path d="M100.177 48.249H107.207C107.441 48.2402 107.672 48.2953 107.877 48.4084C108.081 48.5216 108.251 48.6885 108.368 48.891C108.499 49.1077 108.568 49.3559 108.568 49.609C108.577 49.8426 108.522 50.0743 108.409 50.2789C108.295 50.4835 108.129 50.6533 107.926 50.77C107.709 50.9009 107.461 50.97 107.208 50.97H102.96C102.837 50.9629 102.715 50.9965 102.613 51.0655C102.511 51.1345 102.434 51.2352 102.395 51.352C102.366 51.425 102.35 51.5026 102.349 51.581V53.888C102.343 54.0133 102.379 54.137 102.452 54.2394C102.524 54.3418 102.629 54.417 102.749 54.453C102.819 54.4729 102.891 54.4831 102.963 54.483H107.207C107.441 54.4742 107.672 54.5293 107.877 54.6424C108.081 54.7556 108.251 54.9225 108.368 55.125C108.499 55.3417 108.568 55.5899 108.568 55.843C108.577 56.0766 108.522 56.3083 108.409 56.5129C108.295 56.7175 108.129 56.8874 107.926 57.004C107.709 57.1349 107.461 57.2041 107.208 57.204H102.96C102.835 57.1981 102.711 57.2342 102.609 57.3067C102.506 57.3792 102.431 57.4838 102.395 57.604C102.365 57.6714 102.35 57.7443 102.349 57.818V60.202C102.343 60.3273 102.379 60.451 102.452 60.5534C102.524 60.6558 102.629 60.731 102.749 60.767C102.816 60.7969 102.889 60.8125 102.963 60.813H107.207C107.441 60.8042 107.672 60.8593 107.877 60.9724C108.081 61.0856 108.251 61.2524 108.368 61.455C108.499 61.6717 108.568 61.9199 108.568 62.173C108.574 62.4062 108.518 62.6369 108.405 62.8411C108.292 63.0453 108.127 63.2155 107.926 63.334C107.705 63.4557 107.46 63.5242 107.208 63.534H100.18C100.045 63.5403 99.912 63.5037 99.7993 63.4295C99.6867 63.3553 99.6004 63.2473 99.553 63.121C99.5237 63.0374 99.5082 62.9496 99.507 62.861V48.921C99.5009 48.7864 99.5376 48.6534 99.6118 48.5409C99.686 48.4285 99.7939 48.3424 99.92 48.295C100.002 48.2645 100.089 48.2489 100.177 48.249Z" fill="white"/>
<path d="M111.622 59.907L111.882 59.693C112.065 59.5361 112.29 59.4365 112.529 59.4067C112.768 59.3768 113.011 59.4179 113.227 59.525C113.393 59.5912 113.543 59.6898 113.67 59.815C114 60.1531 114.394 60.4209 114.831 60.602C115.267 60.7832 115.735 60.874 116.207 60.869C116.598 60.9043 116.99 60.8301 117.341 60.6547C117.692 60.4793 117.987 60.2097 118.193 59.876C118.375 59.5768 118.47 59.2331 118.468 58.883C118.468 58.2417 118.02 57.7273 117.123 57.34C116.818 57.2067 116.232 57.0067 115.366 56.74C114.389 56.4635 113.457 56.0464 112.6 55.502C112.132 55.1591 111.755 54.7069 111.502 54.1849C111.249 53.6628 111.127 53.0868 111.148 52.507C111.139 51.9181 111.265 51.3351 111.517 50.8027C111.769 50.2702 112.139 49.8027 112.6 49.436C113.579 48.6302 114.817 48.2067 116.084 48.244C117.357 48.2197 118.609 48.5647 119.69 49.237C119.894 49.3576 120.058 49.5339 120.165 49.7452C120.271 49.9564 120.314 50.1937 120.29 50.429C120.275 50.6206 120.22 50.8069 120.128 50.9755C120.035 51.1441 119.908 51.2912 119.755 51.407C119.57 51.5596 119.344 51.6551 119.105 51.6823C118.867 51.7094 118.625 51.667 118.41 51.56C118.309 51.5061 118.212 51.4449 118.12 51.377C117.544 50.9302 116.832 50.6931 116.103 50.705C115.719 50.6547 115.329 50.7229 114.985 50.9003C114.641 51.0778 114.36 51.3561 114.178 51.698C114.085 51.92 114.033 52.1573 114.025 52.398C114.025 52.9787 114.407 53.4473 115.171 53.804C115.791 54.0657 116.423 54.2954 117.066 54.492C118.177 54.7948 119.22 55.3084 120.137 56.005C120.538 56.3688 120.855 56.8156 121.066 57.3143C121.277 57.8131 121.377 58.3517 121.359 58.893C121.368 59.482 121.256 60.0666 121.03 60.6106C120.804 61.1546 120.468 61.6465 120.045 62.056C119.539 62.5439 118.94 62.9251 118.284 63.1771C117.628 63.4291 116.928 63.5467 116.225 63.523C114.563 63.5467 112.942 63.0083 111.625 61.995C111.433 61.8543 111.285 61.6616 111.198 61.4397C111.112 61.2178 111.09 60.9757 111.136 60.742C111.189 60.413 111.362 60.1155 111.622 59.907Z" fill="white"/>
<path d="M125.636 48.249C125.879 48.2399 126.121 48.2978 126.333 48.4163C126.546 48.5348 126.723 48.7093 126.843 48.921C126.983 49.1458 127.057 49.4053 127.057 49.67V62.107C127.065 62.3484 127.007 62.5874 126.892 62.7995C126.777 63.0116 126.607 63.1892 126.4 63.314C126.165 63.4435 125.904 63.5168 125.636 63.528C125.393 63.5347 125.153 63.4759 124.94 63.3576C124.728 63.2394 124.551 63.0661 124.429 62.856C124.289 62.6312 124.215 62.3718 124.215 62.107V49.67C124.208 49.427 124.267 49.1867 124.385 48.9743C124.504 48.7619 124.677 48.5852 124.887 48.463C125.112 48.323 125.371 48.2489 125.636 48.249Z" fill="white"/>
</g>
<defs>
<clipPath id="clip0">
<rect width="186.015" height="65.851" fill="white"/>
</clipPath>
</defs>
</svg>
