<svg width="10" height="16" viewBox="0 0 10 16" fill="none" xmlns="http://www.w3.org/2000/svg">
<path d="M0.555251 8.62432L7.67545 15.7444C7.84013 15.9092 8.05997 16 8.29437 16C8.52878 16 8.74861 15.9092 8.9133 15.7444L9.43765 15.2202C9.77885 14.8786 9.77885 14.3234 9.43765 13.9823L3.45864 8.00332L9.44428 2.01768C9.60896 1.85286 9.69989 1.63316 9.69989 1.39888C9.69989 1.16435 9.60896 0.944643 9.44428 0.779701L8.91993 0.255608C8.75512 0.0907965 8.53541 9.53674e-07 8.30101 9.53674e-07C8.0666 9.53674e-07 7.84677 0.0907965 7.68209 0.255608L0.555251 7.38218C0.39018 7.54752 0.299514 7.76826 0.300034 8.00293C0.299514 8.2385 0.39018 8.45912 0.555251 8.62432Z" fill="white"/>
</svg>
