<svg width="99" height="101" viewBox="0 0 99 101" fill="none" xmlns="http://www.w3.org/2000/svg">
<path d="M94.6909 74.8524L72.6728 96.8316C71.2728 98.228 69.5455 99.2617 67.6909 99.842C66.9818 100.205 66.1818 100.404 65.3455 100.404H64.0364H54.9091H34.3091H33C32.1455 100.404 31.3455 100.205 30.6546 99.842C28.8 99.2617 27.0727 98.228 25.6727 96.8316L3.63638 74.8524C1.34547 72.5674 0.0545654 69.4663 0.0545654 66.2202V38.4922V35.7176V35.1555C0.0545654 31.9093 1.34547 28.8083 3.63638 26.5233L25.6546 4.56219C27.0546 3.16582 28.7818 2.13213 30.6364 1.55182C31.3455 1.18913 32.1455 0.989647 32.9818 0.989647H34.2909H64H65.3091C66.1637 0.989647 66.9637 1.18913 67.6546 1.55182C69.5091 2.13213 71.2364 3.16582 72.6364 4.56219L94.6546 26.5233C96.9455 28.8083 98.2364 31.9093 98.2364 35.1555V39.3083V66.2202C98.2909 69.4663 97 72.5674 94.6909 74.8524Z" fill="url(#paint0_linear)"/>
<defs>
<linearGradient id="paint0_linear" x1="0.0513291" y1="50.6985" x2="98.2837" y2="50.6985" gradientUnits="userSpaceOnUse">
<stop stop-color="#00D4A9"/>
<stop offset="1" stop-color="#00B5D2"/>
</linearGradient>
</defs>
</svg>
