<svg width="10" height="16" viewBox="0 0 10 16" fill="none" xmlns="http://www.w3.org/2000/svg">
<path d="M9.44469 8.62432L2.32449 15.7444C2.15981 15.9092 1.93997 16 1.70557 16C1.47116 16 1.25133 15.9092 1.08664 15.7444L0.562291 15.2202C0.22109 14.8786 0.22109 14.3234 0.562291 13.9823L6.5413 8.00332L0.555656 2.01768C0.390975 1.85286 0.300049 1.63316 0.300049 1.39888C0.300049 1.16435 0.390975 0.944643 0.555656 0.779701L1.08001 0.255608C1.24482 0.0907965 1.46453 9.53674e-07 1.69893 9.53674e-07C1.93334 9.53674e-07 2.15317 0.0907965 2.31785 0.255608L9.44469 7.38218C9.60976 7.54752 9.70043 7.76826 9.69991 8.00293C9.70043 8.2385 9.60976 8.45912 9.44469 8.62432Z" fill="white"/>
</svg>
