<svg width="16" height="10" viewBox="0 0 16 10" fill="none" xmlns="http://www.w3.org/2000/svg">
<path d="M7.37568 9.44475L0.255608 2.32455C0.0907959 2.15987 -7.16832e-08 1.94003 -6.14371e-08 1.70563C-5.11909e-08 1.47122 0.090796 1.25139 0.255608 1.0867L0.779831 0.562352C1.12142 0.221151 1.6766 0.221151 2.01767 0.562352L7.99668 6.54136L13.9823 0.555718C14.1471 0.391037 14.3668 0.30011 14.6011 0.300111C14.8357 0.300111 15.0554 0.391037 15.2203 0.555718L15.7444 1.08007C15.9092 1.24488 16 1.46459 16 1.69899C16 1.9334 15.9092 2.15323 15.7444 2.31791L8.61782 9.44475C8.45248 9.60982 8.23174 9.70049 7.99707 9.69997C7.7615 9.70049 7.54088 9.60982 7.37568 9.44475Z" fill="white"/>
</svg>
