<svg width="16" height="10" viewBox="0 0 16 10" fill="none" xmlns="http://www.w3.org/2000/svg">
<path d="M7.37568 0.555312L0.255608 7.67551C0.0907959 7.84019 -7.16832e-08 8.06003 -6.14371e-08 8.29443C-5.11909e-08 8.52884 0.090796 8.74867 0.255608 8.91336L0.779831 9.43771C1.12142 9.77891 1.6766 9.77891 2.01767 9.43771L7.99668 3.4587L13.9823 9.44434C14.1471 9.60902 14.3668 9.69995 14.6011 9.69995C14.8357 9.69995 15.0554 9.60902 15.2203 9.44434L15.7444 8.91999C15.9092 8.75518 16 8.53547 16 8.30107C16 8.06666 15.9092 7.84683 15.7444 7.68215L8.61782 0.555312C8.45248 0.39024 8.23174 0.299574 7.99707 0.300094C7.7615 0.299575 7.54088 0.39024 7.37568 0.555312Z" fill="white"/>
</svg>
